<?xml version="1.0" standalone="no"?>
<!DOCTYPE svg PUBLIC "-//W3C//DTD SVG 20010904//EN"
 "http://www.w3.org/TR/2001/REC-SVG-20010904/DTD/svg10.dtd">
<svg version="1.0" xmlns="http://www.w3.org/2000/svg"
 width="3000.000000pt" height="3000.000000pt" viewBox="0 0 3000.000000 3000.000000"
 preserveAspectRatio="xMidYMid meet">
<metadata>
Created by potrace 1.14, written by Peter Selinger 2001-2017
</metadata>
<g transform="translate(0.000000,3000.000000) scale(0.100000,-0.100000)"
fill="#000000" stroke="none">
<path d="M8595 27453 c-1593 -46 -3094 -694 -4224 -1824 -1070 -1070 -1690
-2428 -1813 -3969 -19 -243 -19 -13076 0 -13320 86 -1081 414 -2067 980 -2940
1014 -1563 2655 -2591 4487 -2809 402 -48 87 -46 6975 -46 6888 0 6573 -2
6975 46 2575 307 4705 2206 5310 4732 74 310 129 670 157 1017 19 244 19
13076 0 13320 -122 1538 -744 2900 -1813 3969 -980 980 -2248 1604 -3609 1777
-404 51 58 48 -6895 49 -3542 1 -6480 0 -6530 -2z m13050 -818 c700 -57 1322
-225 1933 -520 569 -276 1036 -608 1482 -1055 853 -852 1391 -1942 1545 -3125
47 -364 45 -51 45 -6935 0 -6869 1 -6581 -45 -6935 -207 -1571 -1092 -2973
-2425 -3840 -677 -441 -1454 -728 -2248 -830 -361 -46 -77 -45 -6932 -45
-6855 0 -6571 -1 -6932 45 -1797 232 -3383 1375 -4174 3010 -260 539 -422
1076 -499 1660 -46 354 -45 66 -45 6935 0 6884 -2 6571 45 6935 154 1183 692
2273 1545 3125 852 853 1934 1388 3125 1546 322 43 113 41 6910 43 5643 1
6514 -1 6670 -14z"/>
<path d="M15515 23374 c-202 -31 -366 -159 -479 -374 -135 -258 -140 -643 -11
-901 74 -147 188 -275 304 -340 l54 -31 -7 -66 c-3 -37 -6 -586 -6 -1219 l0
-1153 -469 0 -468 0 -56 93 c-133 220 -336 692 -463 1077 -75 228 -123 443
-110 495 3 13 31 39 71 65 148 97 266 264 318 450 42 154 52 399 22 544 -62
296 -243 534 -462 607 -135 45 -309 23 -430 -53 -213 -135 -365 -406 -388
-693 -8 -100 10 -301 36 -403 54 -206 186 -380 356 -466 46 -23 54 -31 63 -68
6 -24 107 -401 225 -840 118 -438 215 -799 215 -802 0 -3 -101 -6 -225 -6
-135 0 -225 -4 -225 -9 0 -6 9 -56 20 -113 57 -299 115 -717 145 -1038 31
-345 36 -461 42 -920 7 -625 -19 -1082 -97 -1666 -17 -121 -30 -227 -30 -235
0 -12 128 -14 929 -11 l929 3 16 -68 c8 -37 223 -932 476 -1989 253 -1056 460
-1925 460 -1931 0 -22 -405 -140 -630 -182 -256 -49 -429 -69 -700 -80 -910
-39 -1872 164 -2745 579 -81 38 -151 70 -155 70 -4 0 -10 -127 -14 -282 -32
-1301 -207 -2512 -546 -3785 -38 -144 -70 -270 -70 -278 0 -15 143 -16 1523
-12 1637 5 1579 3 1768 56 336 94 574 302 751 656 143 284 202 544 218 955 15
389 38 561 102 758 57 180 147 343 252 459 58 64 167 138 242 164 62 22 195
42 259 40 56 -2 120 -36 159 -84 44 -55 59 -86 86 -177 81 -277 1063 -3527
1067 -3534 5 -8 738 2416 749 2479 5 24 -242 661 -1196 3090 -661 1683 -1204
3068 -1207 3078 -5 16 29 17 622 17 l628 0 -7 253 c-4 138 -21 578 -38 977
-58 1384 -38 2074 77 2634 14 65 25 120 25 122 0 2 -57 4 -126 4 -115 0 -126
2 -122 18 3 9 92 367 199 796 l194 778 57 39 c167 114 288 304 340 532 32 142
30 358 -5 492 -78 295 -286 528 -514 576 -79 16 -214 7 -282 -19 -248 -96
-443 -392 -470 -716 -28 -331 65 -636 243 -792 47 -42 158 -116 188 -126 6 -2
3 -28 -7 -67 -9 -35 -36 -158 -61 -274 -103 -485 -163 -671 -347 -1064 l-80
-173 -448 0 -449 0 2 1223 3 1222 52 28 c81 43 192 153 240 238 128 226 160
579 77 859 -53 179 -196 368 -344 452 -80 47 -226 75 -315 62z"/>
</g>
</svg>
